<?xml version="1.0"?>
<svg xmlns="http://www.w3.org/2000/svg" xmlns:xlink="http://www.w3.org/1999/xlink" version="1.1" id="Capa_1" x="0px" y="0px" width="512px" height="512px" viewBox="0 0 35.402 35.402" style="enable-background:new 0 0 35.402 35.402;" xml:space="preserve" class=""><g><g>
	<path d="M16.199,24.912l-6.442,2.43l2.511-6.41L16.199,24.912z M35.402,5.994L33.711,4.28L15.213,22.551l1.69,1.715l9.93-9.809   v17.744H3v-29h23.833V6.45h0.043L12.922,20.232l1.693,1.713L33.113,3.674l-1.691-1.713l-1.588,1.567V1.701   c0-0.829-0.672-1.5-1.5-1.5H1.5c-0.828,0-1.5,0.671-1.5,1.5v32c0,0.829,0.672,1.5,1.5,1.5h26.833c0.828,0,1.5-0.671,1.5-1.5V11.867   h-0.377L35.402,5.994z M7.168,8.533h14.5c0.555,0,1-0.448,1-1s-0.445-1-1-1h-14.5c-0.553,0-1,0.448-1,1S6.616,8.533,7.168,8.533z    M7.168,14.199h8.511c0.553,0,1-0.448,1-1c0-0.552-0.447-1-1-1H7.168c-0.553,0-1,0.448-1,1C6.168,13.751,6.616,14.199,7.168,14.199   z" data-original="#000000" class="active-path" data-old_color="#ffffff" fill="#ffffff"/>
</g></g> </svg>
